<svg xmlns="http://www.w3.org/2000/svg" viewBox="0 0 18 25" width="18" height="25">
	<style>
		tspan { white-space:pre }
		.shp0 { fill: #000000 } 
	</style>
	<g id="footer">
		<path id="telephone" class="shp0" d="M1.62 1.63C0.6 2.39 -2.28 6.51 3.11 15.84C8.78 25.67 14.18 25.26 15.27 24.59L11.44 18.15C10.54 18.68 9.77 17.81 8.37 15.91C8.34 15.89 5.62 11.33 5.61 11.27C5.05 10.04 4.6 8.79 5.54 8.23L1.62 1.63ZM17.6 23.24C18.02 22.99 18.12 22.47 17.89 22.09L17.89 22.09C17.89 22.09 14.9 17.07 14.9 17.06C14.67 16.67 14.16 16.54 13.76 16.77L11.93 17.85L15.77 24.31C15.77 24.31 17.6 23.24 17.6 23.24L17.6 23.24ZM7.87 6.86C8.29 6.61 8.39 6.1 8.17 5.72L8.17 5.72C8.17 5.72 5.1 0.55 5.1 0.55C4.86 0.15 4.35 0.03 3.95 0.26L2.12 1.34L6.04 7.94C6.04 7.94 7.87 6.87 7.87 6.87L7.87 6.86Z" />
	</g>
</svg>